<svg width="44" height="45" viewBox="0 0 44 45" fill="none" xmlns="http://www.w3.org/2000/svg">
<rect y="0.276855" width="44" height="44" rx="22" fill="#FFDD33"/>
<path d="M26.19 12.2769H17.81C14.17 12.2769 12 14.4469 12 18.0869V26.4569C12 30.1069 14.17 32.2769 17.81 32.2769H26.18C29.82 32.2769 31.99 30.1069 31.99 26.4669V18.0869C32 14.4469 29.83 12.2769 26.19 12.2769ZM22 26.1569C19.86 26.1569 18.12 24.4169 18.12 22.2769C18.12 20.1369 19.86 18.3969 22 18.3969C24.14 18.3969 25.88 20.1369 25.88 22.2769C25.88 24.4169 24.14 26.1569 22 26.1569ZM27.92 17.1569C27.87 17.2769 27.8 17.3869 27.71 17.4869C27.61 17.5769 27.5 17.6469 27.38 17.6969C27.26 17.7469 27.13 17.7769 27 17.7769C26.73 17.7769 26.48 17.6769 26.29 17.4869C26.2 17.3869 26.13 17.2769 26.08 17.1569C26.03 17.0369 26 16.9069 26 16.7769C26 16.6469 26.03 16.5169 26.08 16.3969C26.13 16.2669 26.2 16.1669 26.29 16.0669C26.52 15.8369 26.87 15.7269 27.19 15.7969C27.26 15.8069 27.32 15.8269 27.38 15.8569C27.44 15.8769 27.5 15.9069 27.56 15.9469C27.61 15.9769 27.66 16.0269 27.71 16.0669C27.8 16.1669 27.87 16.2669 27.92 16.3969C27.97 16.5169 28 16.6469 28 16.7769C28 16.9069 27.97 17.0369 27.92 17.1569Z" fill="#25282B"/>
</svg>
