<svg width="44" height="45" viewBox="0 0 44 45" fill="none" xmlns="http://www.w3.org/2000/svg">
<rect y="0.276855" width="44" height="44" rx="22" fill="#FFDD33"/>
<path d="M26.0001 18.2769C27.5914 18.2769 29.1175 18.909 30.2428 20.0342C31.368 21.1594 32.0001 22.6856 32.0001 24.2769V31.2769H28.0001V24.2769C28.0001 23.7464 27.7894 23.2377 27.4143 22.8626C27.0393 22.4876 26.5306 22.2769 26.0001 22.2769C25.4697 22.2769 24.961 22.4876 24.5859 22.8626C24.2108 23.2377 24.0001 23.7464 24.0001 24.2769V31.2769H20.0001V24.2769C20.0001 22.6856 20.6323 21.1594 21.7575 20.0342C22.8827 18.909 24.4088 18.2769 26.0001 18.2769Z" fill="#25282B"/>
<path d="M16 19.2769H12V31.2769H16V19.2769Z" fill="#25282B"/>
<path d="M14 16.2769C15.1046 16.2769 16 15.3814 16 14.2769C16 13.1723 15.1046 12.2769 14 12.2769C12.8954 12.2769 12 13.1723 12 14.2769C12 15.3814 12.8954 16.2769 14 16.2769Z" fill="#25282B"/>
</svg>
