<svg width="72" height="73" viewBox="0 0 72 73" fill="none" xmlns="http://www.w3.org/2000/svg">
<rect y="0.276855" width="72" height="72" rx="36" fill="#FFDD33"/>
<path d="M51.493 36.2769H42.1972L39.0986 40.9247H32.9014L29.8028 36.2769H20.507" stroke="#25282B" stroke-width="3.09859" stroke-linecap="round" stroke-linejoin="round"/>
<path d="M25.8521 25.6025L20.507 36.2772V45.573C20.507 46.3948 20.8335 47.1829 21.4146 47.764C21.9957 48.3451 22.7838 48.6715 23.6056 48.6715H48.3944C49.2162 48.6715 50.0043 48.3451 50.5854 47.764C51.1665 47.1829 51.493 46.3948 51.493 45.573V36.2772L46.1479 25.6025C45.8914 25.0863 45.4959 24.6518 45.006 24.348C44.5161 24.0442 43.9511 23.8831 43.3747 23.8828H28.6254C28.0489 23.8831 27.4839 24.0442 26.994 24.348C26.5041 24.6518 26.1086 25.0863 25.8521 25.6025V25.6025Z" stroke="#25282B" stroke-width="3.09859" stroke-linecap="round" stroke-linejoin="round"/>
</svg>
