<svg width="44" height="45" viewBox="0 0 44 45" fill="none" xmlns="http://www.w3.org/2000/svg">
<rect y="0.276855" width="44" height="44" rx="22" fill="#FFDD33"/>
<path d="M33.0001 13.2767C32.0425 13.9521 30.9822 14.4688 29.8601 14.8067C29.2579 14.1142 28.4575 13.6233 27.5672 13.4006C26.6769 13.1778 25.7396 13.2339 24.8822 13.5611C24.0248 13.8884 23.2886 14.4711 22.7731 15.2304C22.2576 15.9897 21.9878 16.889 22.0001 17.8067V18.8067C20.2428 18.8522 18.5014 18.4625 16.9311 17.6721C15.3609 16.8817 14.0104 15.7153 13.0001 14.2767C13.0001 14.2767 9.00012 23.2767 18.0001 27.2767C15.9406 28.6746 13.4873 29.3756 11.0001 29.2767C20.0001 34.2767 31.0001 29.2767 31.0001 17.7767C30.9992 17.4981 30.9724 17.2203 30.9201 16.9467C31.9407 15.9402 32.6609 14.6694 33.0001 13.2767Z" fill="#25282B"/>
</svg>
