<svg width="298" height="142" viewBox="0 0 298 142" fill="none" xmlns="http://www.w3.org/2000/svg">
<rect width="298" height="142" rx="24" fill="#F2F4F7"/>
<g clip-path="url(#clip0_1_1532)">
<path d="M131.798 71.8567L128.881 64.0919C128.854 64.0219 128.806 63.9617 128.744 63.9193C128.683 63.8769 128.609 63.8542 128.534 63.8542C128.459 63.8542 128.386 63.8769 128.324 63.9193C128.263 63.9617 128.215 64.0219 128.188 64.0919L125.271 71.8579C125.251 71.913 125.244 71.9722 125.252 72.0303C125.26 72.0885 125.282 72.1439 125.316 72.1916C125.35 72.2394 125.395 72.278 125.448 72.3043C125.5 72.3305 125.559 72.3434 125.617 72.342H131.476C131.564 72.343 131.648 72.3109 131.713 72.2522C131.777 72.1934 131.817 72.1124 131.824 72.0255C131.83 71.9684 131.821 71.9108 131.798 71.8579V71.8567ZM133.157 76.2139H123.912C123.836 76.2144 123.763 76.2379 123.701 76.2811C123.639 76.3243 123.592 76.3853 123.565 76.456L121.735 81.2998C121.709 81.3703 121.662 81.4312 121.6 81.4744C121.539 81.5177 121.466 81.5412 121.39 81.5419H117.382C117.321 81.5428 117.26 81.5284 117.206 81.5001C117.152 81.4716 117.105 81.4303 117.071 81.3795C117.037 81.3288 117.016 81.2703 117.01 81.2093C117.004 81.1484 117.013 81.0869 117.037 81.0305L126.258 58.3964C126.285 58.3279 126.334 58.2698 126.396 58.2304C126.458 58.1909 126.532 58.1722 126.605 58.1767H130.436C130.509 58.1771 130.58 58.198 130.642 58.2368C130.703 58.2756 130.752 58.3309 130.784 58.3964L140.004 81.0305C140.027 81.0871 140.037 81.1488 140.03 81.2098C140.024 81.2709 140.003 81.3295 139.969 81.3804C139.934 81.4312 139.888 81.4728 139.834 81.5012C139.779 81.5296 139.719 81.544 139.657 81.5431H135.655C135.579 81.5425 135.506 81.5189 135.444 81.4755C135.382 81.432 135.335 81.3708 135.309 81.2998L133.479 76.456C133.461 76.3846 133.42 76.3214 133.361 76.2771C133.303 76.2328 133.231 76.2101 133.157 76.2127V76.2139ZM141.909 66.1116H145.346C145.443 66.1134 145.536 66.1525 145.605 66.2207C145.674 66.2887 145.714 66.3808 145.718 66.4778V81.1794C145.714 81.2762 145.674 81.368 145.605 81.4358C145.536 81.5034 145.443 81.5419 145.346 81.5431H141.91C141.813 81.5423 141.72 81.5039 141.651 81.4361C141.582 81.3684 141.541 81.2764 141.538 81.1794V66.4778C141.537 66.429 141.547 66.3807 141.565 66.3356C141.584 66.2906 141.611 66.2497 141.646 66.2155C141.681 66.1813 141.722 66.1545 141.768 66.1366C141.813 66.1188 141.862 66.1102 141.91 66.1116H141.909ZM158.228 69.6892C158.225 69.7864 158.185 69.8788 158.116 69.9472C158.047 70.0156 157.954 70.0548 157.857 70.0567H157.758C156.052 70.0567 154.816 70.444 154.025 71.2484C153.234 72.0528 152.838 73.3662 152.838 75.2133V81.1533C152.835 81.2502 152.795 81.342 152.726 81.4102C152.657 81.4782 152.565 81.5174 152.468 81.5196H149.079C148.983 81.5174 148.89 81.4782 148.821 81.4102C148.753 81.342 148.713 81.2502 148.709 81.1533V66.4778C148.713 66.3808 148.753 66.2887 148.822 66.2207C148.891 66.1525 148.984 66.1134 149.08 66.1116H152.442C152.539 66.1132 152.632 66.152 152.702 66.2202C152.771 66.2883 152.811 66.3806 152.815 66.4778V69.3739H152.888C153.231 68.2738 153.904 67.3058 154.816 66.6007C155.769 65.9286 156.915 65.5867 158.08 65.6274H158.253V69.6905H158.228V69.6892ZM167.598 69.5452C167.502 69.5468 167.41 69.5852 167.341 69.6527C167.272 69.7201 167.232 69.8114 167.228 69.9077V76.0178C167.182 76.4957 167.314 76.9724 167.598 77.3585C167.846 77.6241 168.266 77.7458 168.884 77.7458H169.231C169.327 77.748 169.42 77.7871 169.488 77.8553C169.557 77.9234 169.597 78.0153 169.6 78.112V81.1782C169.597 81.2748 169.557 81.3664 169.488 81.434C169.419 81.5018 169.327 81.5404 169.231 81.5419H167.773C166.264 81.5419 165.103 81.1521 164.287 80.3973C163.471 79.6202 163.076 78.4993 163.076 76.9674V69.9077C163.072 69.811 163.032 69.7194 162.962 69.6518C162.893 69.5843 162.8 69.5461 162.703 69.5452H160.553C160.456 69.5431 160.364 69.5037 160.295 69.4353C160.226 69.3669 160.186 69.2747 160.183 69.1778V66.4778C160.186 66.3809 160.226 66.2888 160.295 66.2207C160.364 66.1525 160.456 66.1134 160.553 66.1116H162.705C162.801 66.1103 162.894 66.0718 162.963 66.0042C163.032 65.9364 163.073 65.8447 163.076 65.7478V60.2945C163.079 60.1977 163.119 60.106 163.189 60.0382C163.258 59.9705 163.35 59.932 163.447 59.9308H166.883C166.98 59.932 167.073 59.9705 167.142 60.0382C167.211 60.106 167.251 60.1977 167.254 60.2945V65.7478C167.257 65.8447 167.298 65.9364 167.367 66.0042C167.436 66.0718 167.529 66.1103 167.625 66.1116H170.097C170.194 66.1134 170.287 66.1525 170.356 66.2207C170.425 66.2887 170.465 66.3808 170.468 66.4778V69.1778C170.465 69.275 170.425 69.3673 170.356 69.4357C170.287 69.5041 170.194 69.5433 170.097 69.5452H167.598ZM183.298 76.9438C183.693 76.5256 184 76.0319 184.2 75.4922C184.399 74.9524 184.488 74.3779 184.46 73.8031C184.482 73.229 184.391 72.6561 184.191 72.1172C183.992 71.5783 183.688 71.084 183.298 70.6625C182.461 69.8961 181.367 69.4711 180.232 69.4711C179.097 69.4711 178.004 69.8961 177.167 70.6625C176.771 71.0807 176.465 71.5745 176.265 72.1141C176.065 72.6539 175.977 73.2284 176.005 73.8031C175.983 74.3773 176.074 74.9502 176.273 75.4891C176.473 76.0279 176.776 76.5223 177.167 76.9438C177.568 77.3433 178.047 77.6554 178.575 77.8605C179.103 78.0655 179.667 78.1593 180.233 78.1356C180.799 78.1671 181.366 78.0771 181.895 77.8716C182.424 77.6661 182.903 77.3498 183.299 76.9438H183.298ZM175.385 81.0578C174.224 80.3996 173.28 79.4179 172.667 78.2324C172.015 76.8465 171.678 75.3339 171.678 73.8025C171.678 72.2712 172.015 70.7587 172.667 69.3727C173.287 68.1929 174.23 67.2135 175.385 66.5485C176.546 65.8952 177.859 65.5595 179.191 65.5753C180.281 65.5486 181.36 65.7917 182.332 66.2829C183.192 66.7381 183.91 67.4203 184.409 68.2554H184.483V66.4505C184.487 66.354 184.527 66.2626 184.596 66.195C184.665 66.1273 184.757 66.0886 184.853 66.0867H188.241C188.338 66.0883 188.43 66.1268 188.499 66.1946C188.568 66.2623 188.609 66.3539 188.612 66.4505V81.1509C188.609 81.2483 188.569 81.3408 188.5 81.4093C188.43 81.4777 188.337 81.5168 188.24 81.5183H184.856C184.759 81.5165 184.666 81.4772 184.597 81.4088C184.528 81.3404 184.487 81.2481 184.485 81.1509V79.3509H184.41C183.911 80.1868 183.193 80.8696 182.332 81.3247C181.359 81.814 180.28 82.0566 179.191 82.031C177.859 82.0469 176.546 81.7112 175.385 81.0578ZM202.731 76.9438C203.125 76.5256 203.432 76.0318 203.632 75.492C203.832 74.9524 203.92 74.3779 203.892 73.8031C203.915 73.229 203.823 72.6561 203.624 72.1172C203.424 71.5783 203.12 71.084 202.731 70.6625C201.894 69.8958 200.799 69.4705 199.664 69.4705C198.53 69.4705 197.435 69.8958 196.598 70.6625C196.203 71.0809 195.897 71.5747 195.697 72.1144C195.498 72.6541 195.409 73.2285 195.437 73.8031C195.415 74.3773 195.507 74.9502 195.706 75.4891C195.905 76.0279 196.208 76.5223 196.599 76.9438C197 77.3433 197.479 77.6554 198.008 77.8605C198.536 78.0655 199.099 78.1593 199.666 78.1356C200.232 78.167 200.799 78.0768 201.328 77.8714C201.857 77.6658 202.335 77.3496 202.732 76.9438H202.731ZM197.589 81.3234C196.728 80.8681 196.01 80.1853 195.511 79.3496H195.436V81.1521C195.432 81.2489 195.393 81.3408 195.324 81.4089C195.255 81.477 195.163 81.5162 195.066 81.5183H191.629C191.532 81.5162 191.44 81.477 191.371 81.4089C191.302 81.3408 191.261 81.2489 191.259 81.1521V58.5168C191.261 58.4202 191.302 58.3284 191.371 58.2605C191.44 58.1926 191.532 58.1537 191.629 58.1519H195.066C195.163 58.1534 195.255 58.192 195.324 58.2597C195.394 58.3273 195.434 58.419 195.437 58.5156V68.2778H195.512C196.011 67.4431 196.73 66.7605 197.589 66.304C198.562 65.8149 199.639 65.5723 200.728 65.5976C202.06 65.5816 203.374 65.9186 204.534 66.5746C205.695 67.2315 206.64 68.212 207.253 69.3962C207.948 70.7666 208.288 72.2895 208.243 73.8255C208.275 75.3605 207.936 76.8801 207.254 78.256C206.633 79.4365 205.69 80.416 204.535 81.0801C203.374 81.7336 202.06 82.0694 200.728 82.0533C199.638 82.0623 198.561 81.8113 197.587 81.3209L197.589 81.3234ZM214.03 81.5208H210.595C210.498 81.5193 210.405 81.4802 210.335 81.4117C210.266 81.3432 210.226 81.2507 210.223 81.1533V58.5181C210.227 58.421 210.267 58.3289 210.336 58.2609C210.406 58.1929 210.499 58.1543 210.596 58.1531H214.031C214.128 58.1552 214.219 58.1941 214.288 58.2616C214.356 58.3292 214.397 58.4205 214.401 58.5168V81.1521C214.402 81.2235 214.382 81.2935 214.344 81.3535C214.305 81.4134 214.249 81.4605 214.183 81.4885C214.135 81.5095 214.083 81.5197 214.031 81.5183V81.5208H214.03ZM222.115 69.6669C221.516 70.1444 221.105 70.8166 220.953 71.5662C220.942 71.6203 220.944 71.6762 220.958 71.7295C220.971 71.7829 220.997 71.8326 221.033 71.8747C221.068 71.9167 221.113 71.9503 221.164 71.9727C221.213 71.9952 221.269 72.006 221.324 72.0044H227.851C227.903 72.0046 227.955 71.9936 228.004 71.9722C228.052 71.9509 228.094 71.9196 228.129 71.8804C228.165 71.8413 228.191 71.7951 228.207 71.7451C228.223 71.6949 228.228 71.642 228.222 71.5898C228.123 70.8622 227.762 70.1957 227.207 69.7153C226.492 69.1467 225.598 68.8525 224.686 68.886C223.767 68.8612 222.864 69.1343 222.115 69.6656L222.113 69.6669H222.115ZM230.472 67.7688C231.806 69.2026 232.474 71.2298 232.473 73.8516V74.2922C232.469 74.3889 232.429 74.4806 232.36 74.5482C232.29 74.6159 232.198 74.6545 232.102 74.656H221.201C221.146 74.6571 221.093 74.6696 221.045 74.6928C220.995 74.7161 220.951 74.7494 220.917 74.7907C220.881 74.832 220.855 74.8803 220.84 74.9324C220.825 74.9846 220.821 75.0392 220.829 75.0929C220.97 76.0046 221.436 76.8346 222.141 77.4305C223.006 78.1074 224.085 78.4522 225.182 78.4025C226.821 78.3796 228.389 77.726 229.558 76.5776C229.596 76.5424 229.642 76.5161 229.692 76.5005C229.743 76.485 229.795 76.4807 229.847 76.4877C229.899 76.4948 229.949 76.5132 229.992 76.5416C230.037 76.5701 230.074 76.6078 230.102 76.6521L231.758 79.012C231.805 79.0873 231.826 79.1761 231.816 79.2645C231.807 79.3527 231.769 79.4357 231.708 79.4998C230.886 80.2005 229.981 80.7974 229.014 81.2775C227.809 81.8149 226.5 82.0807 225.181 82.0558C223.635 82.091 222.105 81.7389 220.731 81.0317C219.492 80.3808 218.469 79.3831 217.788 78.1604C217.068 76.8492 216.702 75.3732 216.726 73.8776C216.699 72.3795 217.047 70.8986 217.74 69.57C218.389 68.3514 219.376 67.346 220.583 66.6751C221.894 65.9602 223.367 65.5991 224.861 65.6274C227.283 65.5989 229.137 66.33 230.472 67.7676V67.7688ZM146.162 60.6632C146.169 61.1619 146.028 61.6516 145.757 62.0703C145.486 62.4889 145.097 62.8178 144.638 63.0153C144.18 63.2128 143.674 63.27 143.183 63.1798C142.693 63.0895 142.24 62.8558 141.882 62.5083C141.524 62.1607 141.278 61.7148 141.173 61.2271C141.069 60.7393 141.111 60.2315 141.295 59.7679C141.48 59.3043 141.797 58.9057 142.208 58.6225C142.618 58.3392 143.104 58.1841 143.602 58.1767H143.615C144.28 58.1736 144.92 58.4322 145.397 58.8966C145.873 59.3611 146.148 59.9942 146.162 60.6594V60.6619V60.6632Z" fill="#9E9E9E"/>
<path d="M84.236 53.4416L68.6395 59.8951C67.7724 60.2543 67.7812 61.4863 68.6542 61.8322L84.3157 68.0429C85.6918 68.5886 87.2243 68.5886 88.6003 68.0429L104.262 61.8322C105.135 61.4863 105.144 60.2543 104.276 59.8954L88.6802 53.4416C87.2573 52.8528 85.6589 52.8528 84.236 53.4416Z" fill="#9E9E9E"/>
<path d="M87.8475 71.4342V86.9497C87.8475 87.6873 88.5916 88.1929 89.2776 87.9209L106.729 81.147C106.924 81.0699 107.091 80.936 107.209 80.7627C107.326 80.5896 107.389 80.385 107.389 80.1757V64.6604C107.389 63.9225 106.645 63.4172 105.959 63.6891L88.5072 70.463C88.3126 70.5402 88.1457 70.6741 88.028 70.8474C87.9105 71.0205 87.8475 71.225 87.8475 71.4344" fill="#9E9E9E"/>
<path d="M83.7723 72.2346L78.593 74.7353L78.0672 74.9896L67.1339 80.2282C66.4411 80.5625 65.5563 80.0575 65.5563 79.2876V64.7252C65.5563 64.4467 65.6991 64.2062 65.8906 64.0253C65.9692 63.9471 66.0583 63.8802 66.1554 63.8267C66.4165 63.6699 66.7891 63.6281 67.106 63.7534L83.6853 70.3226C84.528 70.6569 84.5942 71.8378 83.7723 72.2348" fill="#9E9E9E"/>
<path d="M83.7722 72.2346L78.5929 74.7353L65.8906 64.0251C65.9692 63.9469 66.0584 63.8802 66.1555 63.8267C66.4165 63.6699 66.7892 63.6281 67.106 63.7534L83.6853 70.3226C84.528 70.6569 84.5941 71.8378 83.7722 72.2348" fill="#9E9E9E"/>
</g>
<defs>
<clipPath id="clip0_1_1532">
<rect width="168.828" height="36" fill="white" transform="translate(64.5862 53)"/>
</clipPath>
</defs>
</svg>
