<svg width="298" height="142" viewBox="0 0 298 142" fill="none" xmlns="http://www.w3.org/2000/svg">
<rect width="298" height="142" rx="24" fill="#F2F4F7"/>
<path d="M95.0023 55.9294C92.0032 54.5577 88.8181 53.558 85.4935 53C85.075 53.7207 84.61 54.6972 84.2845 55.4644C80.7484 54.9529 77.2378 54.9529 73.7504 55.4644C73.4249 54.6972 72.9367 53.7207 72.5414 53C69.1936 53.558 66.0085 54.5577 63.0304 55.9294C57.0089 64.8104 55.3815 73.4822 56.1952 82.0378C60.194 84.9438 64.0533 86.7108 67.8452 87.8733C68.7752 86.6178 69.6122 85.2693 70.3329 83.8512C68.9612 83.3397 67.6592 82.712 66.4038 81.968C66.7293 81.7357 67.0548 81.4799 67.357 81.2241C74.9362 84.6882 83.1454 84.6882 90.6314 81.2241C90.9569 81.4799 91.2592 81.7357 91.5847 81.968C90.3292 82.712 89.0273 83.3397 87.6556 83.8512C88.3763 85.2693 89.2133 86.6178 90.1432 87.8733C93.9328 86.7108 97.8154 84.9438 101.793 82.0378C102.793 72.1339 100.21 63.5318 95.0023 55.9294ZM71.3791 76.7603C69.1006 76.7603 67.2407 74.6912 67.2407 72.1571C67.2407 69.623 69.0541 67.5538 71.3791 67.5538C73.6807 67.5538 75.5638 69.623 75.5173 72.1571C75.5173 74.6912 73.6807 76.7603 71.3791 76.7603ZM86.656 76.7603C84.3775 76.7603 82.5152 74.6912 82.5152 72.1571C82.5152 69.623 84.331 67.5538 86.656 67.5538C88.9576 67.5538 90.8407 69.623 90.7942 72.1571C90.7942 74.6912 88.9808 76.7603 86.656 76.7603Z" fill="#9E9E9E"/>
<path d="M117.905 60.2993H127.788C130.159 60.2993 132.182 60.6712 133.833 61.4152C135.483 62.1592 136.715 63.1822 137.529 64.5073C138.343 65.8326 138.761 67.3437 138.761 69.0643C138.761 70.7381 138.343 72.2494 137.483 73.621C136.622 74.9694 135.321 76.062 133.577 76.8526C131.833 77.643 129.671 78.0383 127.09 78.0383H117.905V60.2993ZM126.974 73.528C128.578 73.528 129.811 73.1327 130.671 72.3191C131.531 71.5286 131.973 70.4126 131.973 69.041C131.973 67.7622 131.578 66.7392 130.81 65.9721C130.043 65.2048 128.881 64.8096 127.323 64.8096H124.231V73.528H126.974Z" fill="#9E9E9E"/>
<path d="M154.154 78.0162C152.782 77.6674 151.55 77.1559 150.458 76.4584V72.2503C151.295 72.9013 152.387 73.4128 153.782 73.8313C155.177 74.2498 156.525 74.4591 157.827 74.4591C158.432 74.4591 158.897 74.3893 159.199 74.2266C159.501 74.0638 159.664 73.8778 159.664 73.6453C159.664 73.3896 159.571 73.1803 159.408 73.0176C159.246 72.8548 158.92 72.7153 158.432 72.5758L155.386 71.9017C153.643 71.5065 152.41 70.9252 151.666 70.2277C150.923 69.5302 150.574 68.5771 150.574 67.4146C150.574 66.4381 150.899 65.578 151.527 64.8572C152.178 64.1365 153.085 63.5785 154.27 63.1832C155.456 62.7881 156.828 62.5789 158.432 62.5789C159.85 62.5789 161.152 62.7184 162.338 63.0439C163.523 63.346 164.5 63.7412 165.267 64.2062V68.1819C164.477 67.7168 163.547 67.3448 162.524 67.0658C161.477 66.7868 160.408 66.6473 159.315 66.6473C157.734 66.6473 156.944 66.9263 156.944 67.4611C156.944 67.7168 157.06 67.9028 157.316 68.0424C157.572 68.1819 158.013 68.2981 158.664 68.4376L161.198 68.9026C162.849 69.1815 164.081 69.693 164.895 70.4137C165.709 71.1345 166.104 72.1806 166.104 73.5988C166.104 75.1333 165.43 76.3654 164.081 77.2489C162.733 78.1557 160.826 78.5973 158.362 78.5973C156.921 78.5508 155.526 78.3648 154.154 78.0162Z" fill="#9E9E9E"/>
<path d="M172.384 77.4822C170.942 76.7615 169.826 75.8084 169.106 74.5994C168.362 73.3904 168.013 72.0186 168.013 70.4841C168.013 68.973 168.385 67.6013 169.152 66.4157C169.919 65.2067 171.035 64.2767 172.5 63.5794C173.965 62.9051 175.732 62.5564 177.777 62.5564C180.312 62.5564 182.404 63.0911 184.078 64.1605V68.787C183.497 68.3918 182.799 68.043 182.009 67.8106C181.218 67.5548 180.381 67.4386 179.498 67.4386C177.917 67.4386 176.708 67.7176 175.801 68.2988C174.918 68.88 174.476 69.624 174.476 70.5539C174.476 71.4606 174.895 72.2046 175.778 72.7859C176.638 73.367 177.894 73.6692 179.521 73.6692C180.358 73.6692 181.195 73.5531 182.009 73.2974C182.823 73.0416 183.543 72.7626 184.124 72.3906V76.8777C182.264 77.9937 180.102 78.5516 177.661 78.5516C175.592 78.5516 173.848 78.1797 172.384 77.4822Z" fill="#9E9E9E"/>
<path d="M190.706 77.4822C189.241 76.7615 188.125 75.8082 187.358 74.576C186.591 73.3437 186.196 71.9721 186.196 70.4376C186.196 68.9265 186.591 67.5548 187.358 66.3692C188.125 65.1835 189.241 64.2535 190.683 63.5794C192.124 62.9051 193.868 62.5564 195.869 62.5564C197.869 62.5564 199.613 62.8819 201.054 63.5794C202.495 64.2535 203.611 65.1835 204.379 66.3692C205.146 67.5548 205.518 68.9033 205.518 70.4376C205.518 71.9489 205.146 73.3437 204.379 74.576C203.611 75.8082 202.519 76.7847 201.054 77.4822C199.589 78.1797 197.869 78.5516 195.869 78.5516C193.891 78.5516 192.171 78.1797 190.706 77.4822ZM198.404 72.9951C199.008 72.3908 199.334 71.5536 199.334 70.5539C199.334 69.531 199.031 68.7405 198.404 68.136C197.776 67.5316 196.939 67.2293 195.893 67.2293C194.8 67.2293 193.961 67.5316 193.333 68.136C192.729 68.7405 192.403 69.531 192.403 70.5539C192.403 71.5769 192.705 72.3908 193.333 72.9951C193.961 73.6229 194.8 73.925 195.893 73.925C196.939 73.9017 197.799 73.5996 198.404 72.9951Z" fill="#9E9E9E"/>
<path d="M221.072 63.4852V68.9489C220.421 68.5304 219.584 68.3211 218.561 68.3211C217.213 68.3211 216.166 68.7396 215.446 69.5532C214.724 70.367 214.352 71.6457 214.352 73.3661V78.0159H208.145V63.2295H214.237V67.9491C214.562 66.2286 215.12 64.95 215.864 64.1362C216.608 63.3225 217.585 62.8809 218.77 62.8809C219.653 62.8809 220.421 63.0901 221.072 63.4852Z" fill="#9E9E9E"/>
<path d="M242 59.7883V78.0386H235.793V74.714C235.258 75.9695 234.467 76.9228 233.398 77.5736C232.327 78.2246 231.001 78.5501 229.42 78.5501C228.025 78.5501 226.793 78.2014 225.746 77.5271C224.701 76.853 223.888 75.8998 223.33 74.714C222.772 73.5052 222.493 72.1567 222.493 70.6688C222.469 69.1111 222.772 67.7162 223.399 66.484C224.003 65.2519 224.887 64.2986 226.003 63.6011C227.119 62.9036 228.397 62.5549 229.838 62.5549C232.792 62.5549 234.77 63.8336 235.793 66.4142V59.7883H242ZM234.863 72.8774C235.49 72.2729 235.816 71.4592 235.816 70.4828C235.816 69.5296 235.514 68.7623 234.886 68.1812C234.259 67.6 233.422 67.2977 232.373 67.2977C231.326 67.2977 230.489 67.6 229.862 68.2045C229.234 68.8088 228.932 69.5761 228.932 70.5526C228.932 71.5289 229.234 72.2962 229.862 72.9007C230.489 73.5052 231.304 73.8074 232.349 73.8074C233.398 73.8074 234.235 73.5052 234.863 72.8774Z" fill="#9E9E9E"/>
<path d="M144.483 64.1137C146.266 64.1137 147.714 62.8125 147.714 61.2076C147.714 59.6025 146.266 58.3015 144.483 58.3015C142.697 58.3015 141.251 59.6025 141.251 61.2076C141.251 62.8125 142.697 64.1137 144.483 64.1137Z" fill="#9E9E9E"/>
<path d="M147.714 66.1116C145.738 66.9717 143.274 66.9949 141.251 66.1116V78.0383H147.714V66.1116Z" fill="#9E9E9E"/>
</svg>
