<svg width="298" height="142" viewBox="0 0 298 142" fill="none" xmlns="http://www.w3.org/2000/svg">
<rect width="298" height="142" rx="24" fill="#F2F4F7"/>
<path fill-rule="evenodd" clip-rule="evenodd" d="M223.306 80.6417L230.277 71.2809L223.847 62.4363H229.354L233.078 67.9547L236.835 62.4363H242.31L235.784 71.2493L242.659 80.6417H237.249L233.014 74.7021L228.908 80.6417H223.306Z" fill="#9E9E9E"/>
<path fill-rule="evenodd" clip-rule="evenodd" d="M205.778 71.9028C205.778 77.9114 209.066 81.1056 214.89 81.1056C220.341 81.1056 224.036 77.9114 224.036 71.9028V71.3968C224.036 65.3249 220.278 61.9727 214.89 61.9727C209.63 61.9727 205.778 65.2616 205.778 71.3968V71.9028ZM219.289 71.9041C219.289 75.2374 217.624 77.0471 214.89 77.0471C212.19 77.0471 210.525 75.2057 210.525 71.9041V71.4597C210.525 67.9042 212.283 66.0312 214.922 66.0312C217.593 66.0312 219.289 68.0312 219.289 71.4597V71.9041Z" fill="#9E9E9E"/>
<path fill-rule="evenodd" clip-rule="evenodd" d="M189.852 77.312C190.84 79.6513 192.815 81.1054 195.843 81.1054C200.526 81.1054 203.586 77.6913 203.586 71.622V71.0846C203.586 65.0152 200.336 62.0122 195.97 61.9805C193.07 61.9805 191.031 63.2766 190.011 65.6474V56.2905H185.327V80.6312H189.47L189.852 77.312ZM198.838 71.6655C198.838 75.2741 197.168 77.0469 194.425 77.0469C191.808 77.0469 190.074 75.0842 190.074 71.6655V71.2856C190.074 68.1519 191.871 66.0309 194.488 66.0309C197.01 66.0309 198.838 67.8669 198.838 71.2224V71.6655Z" fill="#9E9E9E"/>
<path fill-rule="evenodd" clip-rule="evenodd" d="M164.512 62.4579V86.9034H169.188V77.7486C170.175 79.8755 172.115 81.1768 175.041 81.1768C179.368 81.1768 182.771 78.0343 182.771 72.0033V71.4954C182.771 65.3374 179.717 61.9727 175.041 61.9727C172.019 61.9727 169.984 63.528 168.998 65.877L168.52 62.4579H164.512ZM178.024 71.8873C178.024 75.2427 176.29 77.0471 173.579 77.0471C170.962 77.0471 169.26 75.0211 169.26 71.7924V71.444C169.26 68.057 171.025 66.0312 173.673 66.0312C176.164 66.0312 178.024 67.8355 178.024 71.4757V71.8873Z" fill="#9E9E9E"/>
<path fill-rule="evenodd" clip-rule="evenodd" d="M143.698 71.9028C143.698 77.9114 147.017 81.1056 152.843 81.1056C158.292 81.1056 161.956 77.9114 161.956 71.9028V71.3968C161.956 65.3249 158.229 61.9727 152.843 61.9727C147.581 61.9727 143.698 65.2616 143.698 71.3968V71.9028ZM157.209 71.9041C157.209 75.2374 155.513 77.0471 152.811 77.0471C150.11 77.0471 148.445 75.2057 148.445 71.9041V71.4597C148.445 67.9042 150.204 66.0312 152.843 66.0312C155.513 66.0312 157.209 68.0312 157.209 71.4597V71.9041Z" fill="#9E9E9E"/>
<path fill-rule="evenodd" clip-rule="evenodd" d="M130.916 80.6418H135.705V72.2784C135.705 68.4136 136.663 67.0515 140.622 67.0515H142.602V62.2046H141.42C138.004 62.2046 136.121 63.6935 135.386 66.608L134.78 62.4354H130.916V80.6418Z" fill="#9E9E9E"/>
<path fill-rule="evenodd" clip-rule="evenodd" d="M109.736 58.1458V80.6414H118.432C124.096 80.6414 128.36 77.3575 128.36 70.0953V68.548C128.36 61.3173 123.842 58.1458 118.305 58.1458H109.736ZM114.484 62.2042H118.106C121.378 62.2042 123.613 64.2674 123.613 68.8064V69.9808C123.613 74.5197 121.443 76.5829 118.268 76.5829H114.484V62.2042Z" fill="#9E9E9E"/>
<path d="M65.6103 53.4612L55.1904 60.0751L65.6103 66.689L76.0319 60.0751L86.4519 66.689L96.8717 60.0751L86.4519 53.4612L76.0319 60.0751L65.6103 53.4612Z" fill="#9E9E9E"/>
<path d="M65.6103 79.9173L55.1904 73.3032L65.6103 66.6892L76.0319 73.3032L65.6103 79.9173Z" fill="#9E9E9E"/>
<path d="M76.032 73.3032L86.4519 66.6892L96.8718 73.3032L86.4519 79.9173L76.032 73.3032Z" fill="#9E9E9E"/>
<path d="M76.0317 88.7357L65.6101 82.1217L76.0317 75.5078L86.4516 82.1217L76.0317 88.7357Z" fill="#9E9E9E"/>
</svg>
