<svg width="139" height="56" viewBox="0 0 139 56" fill="none" xmlns="http://www.w3.org/2000/svg">
<path d="M43.2194 29.6108L40.4642 38.3237C40.3025 38.8329 39.8312 39.1803 39.298 39.1803H30.7157C29.8902 39.1803 29.2985 38.3754 29.5496 37.5842L32.3049 28.8746C32.4632 28.362 32.9378 28.0181 33.471 28.0181H42.0534C42.8789 28.0181 43.4705 28.823 43.2194 29.6108Z" fill="white"/>
<path d="M54.0892 12.8694L51.3339 21.5825C51.1722 22.0916 50.701 22.4355 50.1678 22.4355H29.5599C29.0886 22.4355 28.6793 22.7382 28.5314 23.1785C28.528 23.182 28.5245 23.1888 28.5245 23.1923V23.1957L28.3181 23.8493V23.8527C28.3181 23.8562 28.3147 23.8631 28.3113 23.8665L25.2326 33.5977L21.9751 43.9034C21.8135 44.4125 21.3422 44.7599 20.8056 44.7599H12.2267C11.3977 44.7599 10.8095 43.955 11.0571 43.1639L14.0842 33.5977L17.3417 23.2921C17.5033 22.783 17.9781 22.4356 18.5112 22.4356H27.9673C28.4419 22.4356 28.8616 22.1295 29.0026 21.6788L29.3879 20.4611C29.3879 20.4577 29.3913 20.4508 29.3948 20.4473L32.0228 12.1299C32.1845 11.6208 32.6557 11.2769 33.1923 11.2769H52.9197C53.7486 11.2768 54.3403 12.0817 54.0892 12.8694Z" fill="#FFDD33"/>
<path d="M67.9235 36.0186V18.9786H79.3715V21.8826H71.2355V26.2746H78.0035V28.9626H71.2355V36.0186H67.9235ZM81.3927 36.0186V23.4426H84.6087V36.0186H81.3927ZM81.3927 21.6906V18.4986H84.6087V21.6906H81.3927ZM99.1979 36.0186H95.9819V28.9626C95.9819 27.9546 95.8059 27.2186 95.4539 26.7546C95.1019 26.2906 94.6139 26.0586 93.9899 26.0586C93.5579 26.0586 93.1179 26.1706 92.6699 26.3946C92.2379 26.6186 91.8459 26.9306 91.4939 27.3306C91.1419 27.7146 90.8859 28.1626 90.7259 28.6746V36.0186H87.5099V23.4426H90.4139V25.7706C90.7339 25.2266 91.1419 24.7706 91.6379 24.4026C92.1339 24.0186 92.7019 23.7306 93.3419 23.5386C93.9979 23.3306 94.6859 23.2266 95.4059 23.2266C96.1899 23.2266 96.8299 23.3706 97.3259 23.6586C97.8379 23.9306 98.2219 24.3066 98.4779 24.7866C98.7499 25.2506 98.9339 25.7786 99.0299 26.3706C99.1419 26.9626 99.1979 27.5626 99.1979 28.1706V36.0186ZM101.154 34.0506L108.09 25.6986H101.442V23.4426H111.546V25.4106L104.658 33.7626H111.666V36.0186H101.154V34.0506ZM119.427 36.2586C118.403 36.2586 117.483 36.0906 116.667 35.7546C115.851 35.4026 115.155 34.9226 114.579 34.3146C114.019 33.7066 113.587 33.0106 113.283 32.2266C112.979 31.4426 112.827 30.6186 112.827 29.7546C112.827 28.8746 112.979 28.0426 113.283 27.2586C113.587 26.4746 114.019 25.7786 114.579 25.1706C115.155 24.5626 115.851 24.0906 116.667 23.7546C117.483 23.4026 118.403 23.2266 119.427 23.2266C120.451 23.2266 121.363 23.4026 122.163 23.7546C122.979 24.0906 123.675 24.5626 124.251 25.1706C124.827 25.7786 125.259 26.4746 125.547 27.2586C125.851 28.0426 126.003 28.8746 126.003 29.7546C126.003 30.6186 125.851 31.4426 125.547 32.2266C125.259 33.0106 124.827 33.7066 124.251 34.3146C123.691 34.9226 123.003 35.4026 122.187 35.7546C121.371 36.0906 120.451 36.2586 119.427 36.2586ZM116.139 29.7546C116.139 30.4906 116.283 31.1466 116.571 31.7226C116.859 32.2826 117.251 32.7226 117.747 33.0426C118.243 33.3626 118.803 33.5226 119.427 33.5226C120.035 33.5226 120.587 33.3626 121.083 33.0426C121.579 32.7066 121.971 32.2586 122.259 31.6986C122.563 31.1226 122.715 30.4666 122.715 29.7306C122.715 29.0106 122.563 28.3626 122.259 27.7866C121.971 27.2106 121.579 26.7626 121.083 26.4426C120.587 26.1226 120.035 25.9626 119.427 25.9626C118.803 25.9626 118.243 26.1306 117.747 26.4666C117.251 26.7866 116.859 27.2346 116.571 27.8106C116.283 28.3706 116.139 29.0186 116.139 29.7546Z" fill="white"/>
</svg>
