<svg width="298" height="142" viewBox="0 0 298 142" fill="none" xmlns="http://www.w3.org/2000/svg">
<rect width="298" height="142" rx="24" fill="#F2F4F7"/>
<g clip-path="url(#clip0_1_1526)">
<path d="M53.9948 81.454C53.2661 81.4556 52.55 81.2637 51.9197 80.898C51.2895 80.5322 50.7676 80.0058 50.4074 79.3723C50.0527 78.7433 49.8758 78.0296 49.8956 77.3078C49.9155 76.586 50.1313 75.8831 50.52 75.2745L57.9079 63.6731C58.286 63.0496 58.8228 62.5377 59.4636 62.1895C60.1043 61.8414 60.826 61.6696 61.5548 61.6916C62.2832 61.709 62.9938 61.9197 63.6139 62.302C64.2341 62.6842 64.7416 63.2244 65.0844 63.8672C65.7731 65.1695 65.687 66.7363 64.8622 67.9587L57.479 79.5601C57.1046 80.1435 56.589 80.623 55.9799 80.9541C55.3708 81.2851 54.688 81.4571 53.9948 81.454Z" fill="#9E9E9E"/>
<path d="M66.6668 81.454C65.1767 81.454 63.8056 80.6573 63.0856 79.377C62.7317 78.7497 62.5552 78.0379 62.5751 77.3179C62.5949 76.598 62.8103 75.897 63.1983 75.2902L70.572 63.7154C70.9445 63.0831 71.4795 62.562 72.1213 62.2062C72.7631 61.8503 73.4885 61.6726 74.2221 61.6916C75.7247 61.7244 77.0864 62.565 77.7751 63.8798C78.4591 65.1945 78.3589 66.7707 77.509 67.99L70.1369 79.5648C69.7636 80.1457 69.2501 80.6233 68.6436 80.9535C68.0371 81.2837 67.3573 81.4558 66.6668 81.454Z" fill="#9E9E9E"/>
<path d="M79.0555 81.5511C81.1561 81.5511 82.859 79.8839 82.859 77.8274C82.859 75.7709 81.1561 74.1038 79.0555 74.1038C76.9549 74.1038 75.252 75.7709 75.252 77.8274C75.252 79.8839 76.9549 81.5511 79.0555 81.5511Z" fill="#9E9E9E"/>
<path d="M244.289 74.3199C245.438 74.3199 246.125 75.137 246.125 76.4752V81.0613H247.686V76.3704C247.686 74.0945 246.614 72.7751 244.598 72.7751C243.809 72.7751 242.556 72.9911 241.81 74.442C241.636 74.0141 241.35 73.6411 240.982 73.3627C240.613 73.0844 240.177 72.911 239.717 72.8611C239.428 72.8082 239.134 72.7909 238.841 72.8095C238.199 72.8611 237.056 73.2603 236.629 74.165V72.9488H235.067V81.0613H236.629V76.6834C236.629 74.9805 237.743 74.3199 238.859 74.3199C239.905 74.3199 240.592 75.1198 240.592 76.458V81.0613H242.145V76.6834C242.145 75.3279 242.959 74.3043 244.289 74.3199ZM229.334 79.7058C230.047 79.7215 230.736 79.4366 231.235 78.9201C231.736 78.4036 232.002 77.7008 231.976 76.9792C231.976 75.3451 230.774 74.3199 229.334 74.3199C227.892 74.3199 226.691 75.3451 226.691 76.9792C226.663 77.6992 226.929 78.4005 227.427 78.9154C227.925 79.4319 228.61 79.7184 229.321 79.7058H229.334ZM229.334 81.2272C227.051 81.2272 225.147 79.5415 225.147 76.9698C225.147 74.3982 227.051 72.7657 229.334 72.7657C231.616 72.7657 233.536 74.3982 233.536 76.9698C233.536 79.5415 231.605 81.2351 229.323 81.2351L229.334 81.2272ZM217.109 76.9698L217.094 76.9792C217.094 74.4076 219.048 72.7751 221.346 72.7657C221.924 72.7545 222.497 72.8646 223.029 73.089C223.561 73.3133 224.04 73.6468 224.434 74.0679L223.251 75.0759C223 74.8291 222.702 74.6346 222.375 74.5034C222.048 74.3724 221.698 74.3073 221.346 74.3121C219.906 74.3121 218.654 75.3373 218.654 76.9698C218.654 78.0733 219.31 79.0672 220.316 79.4898C221.323 79.9125 222.481 79.6777 223.251 78.8982L224.452 79.9062C224.055 80.3316 223.574 80.6691 223.039 80.8967C222.504 81.1242 221.928 81.2369 221.346 81.2272C219.066 81.2272 217.109 79.5415 217.109 76.9698ZM212.111 79.5039C212.11 79.3621 212.136 79.2214 212.189 79.0897C212.242 78.958 212.32 78.838 212.419 78.7366C212.518 78.6351 212.636 78.5542 212.767 78.4984C212.897 78.4426 213.037 78.4131 213.179 78.4114C213.321 78.4131 213.461 78.4426 213.591 78.4984C213.722 78.5542 213.84 78.6351 213.939 78.7366C214.038 78.838 214.116 78.958 214.169 79.0897C214.222 79.2214 214.248 79.3621 214.246 79.5039C214.232 79.7786 214.114 80.0376 213.916 80.2281C213.717 80.4187 213.454 80.5263 213.179 80.5291C212.904 80.5263 212.64 80.4187 212.442 80.2281C212.244 80.0376 212.125 79.7786 212.111 79.5039Z" fill="#9E9E9E"/>
<path fill-rule="evenodd" clip-rule="evenodd" d="M216.381 62.6355H210.823L206.927 72.6795L203.052 62.6355H197.494L204.251 78.5068L200.048 89H205.566L216.381 62.6355ZM182.579 71.4633C182.579 73.999 184.795 75.6675 186.972 75.6675C189.112 75.6675 191.214 74.1148 191.214 71.4617C191.214 68.8087 189.112 67.2544 186.972 67.2544C184.795 67.2544 182.579 68.9245 182.579 71.4617V71.4633ZM191.214 80.3256V78.3174C190.087 80.0235 187.458 80.6683 186.108 80.6683C181.641 80.6683 177.173 77.1466 177.173 71.4617C177.173 65.7784 181.64 62.2567 186.108 62.2567C187.234 62.2567 189.863 62.6323 191.214 64.6045V62.6417H196.395V80.3287L191.214 80.3271V80.3256ZM175.698 80.3256H170.517V78.128C169.652 79.7558 167.553 80.7043 165.374 80.7043C160.868 80.7043 156.887 77.1059 156.887 71.5337C156.887 65.8567 160.868 62.2536 165.374 62.2536C167.55 62.2536 169.655 63.1614 170.517 64.7908V53H175.698V80.3256ZM170.405 71.4226C170.405 68.7711 168.49 67.2169 166.351 67.2169C164.134 67.2169 162.294 68.8838 162.294 71.4226C162.294 74.0428 164.134 75.7019 166.349 75.7019C168.53 75.705 170.405 73.9614 170.405 71.4226ZM144.078 70.9656C144.078 68.2765 145.468 67.3671 147.307 67.3671C149.071 67.3671 150.348 68.541 150.348 70.8889V80.3224H155.566V69.7541C155.566 64.7172 153.087 62.2536 149.144 62.2536C147.08 62.2536 145.015 63.4275 144.076 65.2087V62.6355H138.861V80.3224H144.078V70.9656ZM128.264 80.6261C123.309 80.6261 119.175 76.9901 119.175 71.421C119.175 65.8489 123.304 62.2489 128.264 62.2489C133.224 62.2489 137.39 65.8489 137.39 71.421C137.39 76.9932 133.22 80.6277 128.264 80.6277V80.6261ZM128.264 75.4765C130.44 75.4765 132.245 73.8831 132.245 71.4226C132.245 69.0357 130.442 67.4063 128.264 67.4063C127.74 67.3981 127.22 67.4966 126.735 67.696C126.25 67.8954 125.81 68.1915 125.444 68.5661C125.075 68.9427 124.786 69.3897 124.592 69.8804C124.4 70.3711 124.308 70.8956 124.322 71.4226C124.323 73.8863 126.125 75.4765 128.264 75.4765ZM109.82 67.3687C111.358 67.3687 112.711 68.5817 112.711 70.8904V80.3256H117.892V70.28C117.892 64.9395 115.295 62.2504 111.133 62.2504C109.896 62.2504 107.567 62.6261 105.877 65.3934C104.9 63.3477 103.024 62.2864 100.25 62.2864C99.287 62.2815 98.3433 62.5541 97.531 63.0714C96.7187 63.5889 96.0728 64.3292 95.6704 65.204V62.637H90.4487V80.324H95.6658V70.9656C95.6658 68.2765 97.1308 67.3671 98.7067 67.3671C100.209 67.3671 101.559 68.541 101.598 70.7762V80.324H106.816V70.9656C106.816 68.3939 108.168 67.3703 109.82 67.3703V67.3687Z" fill="#9E9E9E"/>
</g>
<defs>
<clipPath id="clip0_1_1526">
<rect width="198.212" height="36" fill="white" transform="translate(49.8941 53)"/>
</clipPath>
</defs>
</svg>
