<svg width="298" height="142" viewBox="0 0 298 142" fill="none" xmlns="http://www.w3.org/2000/svg">
<rect width="298" height="142" rx="24" fill="#F2F4F7"/>
<g clip-path="url(#clip0_1_1518)">
<path d="M133.386 65.9556H138.032V80.5472H133.386V65.9556Z" fill="#9E9E9E"/>
<path d="M139.001 65.9555H143.476V67.9504H143.561C144.644 66.3829 146.041 65.5281 148.064 65.5281C151.256 65.5281 153.137 67.8079 153.137 71.0569V80.5471H148.492V71.9974C148.492 70.4584 147.722 69.4038 146.212 69.4038C144.673 69.4038 143.647 70.6864 143.647 72.4818V80.5471H139.001V65.9555Z" fill="#9E9E9E"/>
<path d="M138.495 62.0517C138.495 60.5126 137.248 59.2651 135.709 59.2651C134.17 59.2651 132.922 60.5126 132.922 62.0517C132.922 63.5906 134.17 64.8381 135.709 64.8381C137.248 64.8381 138.495 63.5906 138.495 62.0517Z" fill="#9E9E9E"/>
<path d="M185.809 65.7448C185.676 65.7328 185.524 65.7275 185.347 65.7275C183.58 65.7275 182.383 66.497 181.357 68.2355H181.271V65.9555H176.825V80.547H181.471V73.9922C181.471 70.9551 183.153 69.5478 185.809 69.7934V65.7448Z" fill="#9E9E9E"/>
<path d="M208.606 71.3418C206.753 71 205.1 70.8575 205.1 69.8315C205.1 68.9194 205.983 68.492 207.123 68.492C208.406 68.492 209.289 68.891 209.46 70.202H213.736C213.508 67.3236 211.285 65.5281 207.152 65.5281C203.704 65.5281 200.854 67.124 200.854 70.202C200.854 73.6218 203.561 74.3058 206.097 74.7334C208.035 75.0754 209.802 75.2178 209.802 76.5288C209.802 77.4693 208.919 77.9822 207.522 77.9822C206.122 77.9822 205.194 77.3896 204.91 76.1868H200.485C200.81 79.1865 203.443 81.0031 207.551 81.0031C211.37 81.0031 214.191 79.3502 214.191 76.1584C214.191 72.4249 211.171 71.7694 208.606 71.3418Z" fill="#9E9E9E"/>
<path d="M193.015 68.834C194.526 68.834 195.608 69.9454 195.779 71.6841H190.023C190.336 69.9454 191.248 68.834 193.015 68.834ZM193.272 77.6402C191.362 77.6402 190.279 76.4148 189.994 74.4483H200.482C200.51 71.4845 199.655 68.948 197.917 67.3521C196.663 66.2122 195.01 65.5281 192.929 65.5281C188.484 65.5281 185.434 68.8624 185.434 73.223C185.434 77.6402 188.398 80.9747 193.214 80.9747C195.067 80.9747 196.549 80.4903 197.775 79.6352C199.057 78.7518 199.912 77.4978 200.226 76.187H195.694C195.295 77.0988 194.497 77.6402 193.272 77.6402Z" fill="#9E9E9E"/>
<path d="M222.373 77.1063C222.158 77.1148 221.868 77.1273 221.603 77.1273C220.605 77.1273 219.979 76.8422 219.979 75.7023V68.8624H222.373V65.9555H219.979V61.3386H215.447V65.9555H214.022V68.8624H215.447V76.6997C215.447 79.8348 217.385 80.7181 220.093 80.7181C221.125 80.7181 221.906 80.6407 222.373 80.5498V77.1063Z" fill="#9E9E9E"/>
<path d="M161.433 77.113C161.248 77.1201 161.034 77.1273 160.834 77.1273C159.837 77.1273 159.209 76.8422 159.209 75.7023V68.8624H161.433V65.9555H159.209V61.3386H154.678V65.9555H153.167V68.8624H154.678V76.6997C154.678 79.8348 156.616 80.7181 159.324 80.7181C160.24 80.7181 160.957 80.6572 161.433 80.5799V77.113Z" fill="#9E9E9E"/>
<path d="M171.552 71.6838C171.38 69.9454 170.297 68.8337 168.787 68.8337C167.02 68.8337 166.108 69.9454 165.795 71.6838H171.552ZM161.206 73.2228C161.206 68.8624 164.256 65.5281 168.702 65.5281C170.782 65.5281 172.435 66.212 173.689 67.352C175.427 68.948 176.282 71.4843 176.254 74.4483H165.766C166.051 76.4147 167.134 77.6402 169.044 77.6402C170.269 77.6402 171.067 77.0987 171.466 76.1867H175.997C175.684 77.4977 174.829 78.7516 173.546 79.6352C172.321 80.49 170.839 80.9746 168.986 80.9746C164.17 80.9746 161.206 77.6402 161.206 73.2228Z" fill="#9E9E9E"/>
<path d="M125.319 69.746C127.143 69.746 128.169 68.663 128.169 67.0384C128.169 65.414 127.114 64.4166 125.319 64.4166H121.756V69.746H125.319ZM117.053 60.1702H125.12C127.599 60.1702 129.423 60.8541 130.677 62.0511C131.988 63.2765 132.729 65.015 132.729 67.0669C132.729 70.9713 130.022 73.7359 125.832 73.7359H121.756V80.5471H117.053V60.1702Z" fill="#9E9E9E"/>
<path d="M110.676 70.9711C110.676 80.6576 102.823 88.5099 93.1371 88.5099C83.4507 88.5099 75.5983 80.6576 75.5983 70.9711C75.5983 61.2847 83.4507 53.4324 93.1371 53.4324C102.823 53.4324 110.676 61.2847 110.676 70.9711Z" fill="#F2F4F7"/>
<path d="M93.1371 53.4324C83.4507 53.4324 75.5983 61.2848 75.5983 70.9712C75.5983 78.4014 80.2212 84.7534 86.7455 87.3088C86.5922 85.9212 86.4536 83.7871 86.8063 82.2722C87.125 80.9034 88.8629 73.5543 88.8629 73.5543C88.8629 73.5543 88.3383 72.5036 88.3383 70.9504C88.3383 68.5116 89.7518 66.6909 91.5119 66.6909C93.0083 66.6909 93.7309 67.8142 93.7309 69.1614C93.7309 70.6663 92.7728 72.9161 92.2785 75.001C91.8652 76.7467 93.1539 78.1703 94.8757 78.1703C97.9928 78.1703 100.389 74.8834 100.389 70.1389C100.389 65.9395 97.3716 63.0034 93.063 63.0034C88.0726 63.0034 85.1435 66.7465 85.1435 70.6147C85.1435 72.1221 85.7241 73.7386 86.4487 74.6173C86.5921 74.791 86.6131 74.9431 86.5704 75.1204C86.4372 75.6743 86.1414 76.8656 86.0833 77.1095C86.0068 77.4305 85.8291 77.4986 85.4967 77.3439C83.3062 76.3242 81.9367 73.1216 81.9367 70.5493C81.9367 65.0168 85.9565 59.9358 93.5253 59.9358C99.6094 59.9358 104.338 64.2713 104.338 70.0654C104.338 76.11 100.526 80.9746 95.2365 80.9746C93.4593 80.9746 91.7885 80.0512 91.2166 78.9606C91.2166 78.9606 90.3371 82.3093 90.1239 83.13C89.728 84.6534 88.6591 86.5629 87.9441 87.7279C89.5851 88.2359 91.329 88.51 93.1371 88.51C102.824 88.51 110.676 80.6575 110.676 70.9712C110.676 61.2848 102.824 53.4324 93.1371 53.4324Z" fill="#9E9E9E"/>
</g>
<defs>
<clipPath id="clip0_1_1518">
<rect width="147.105" height="36" fill="white" transform="translate(75.4473 53)"/>
</clipPath>
</defs>
</svg>
