<svg width="298" height="142" viewBox="0 0 298 142" fill="none" xmlns="http://www.w3.org/2000/svg">
<rect width="298" height="142" rx="24" fill="#F2F4F7"/>
<g style="mix-blend-mode:luminosity" clip-path="url(#clip0_1_1528)">
<path d="M122.398 81.4864L124.155 77.3788C126.08 78.8038 128.589 79.5581 131.1 79.5581C132.94 79.5581 134.112 78.8458 134.112 77.7562C134.07 74.7382 123.025 77.0855 122.941 69.4978C122.899 65.6416 126.33 62.6657 131.184 62.6657C134.07 62.6657 136.957 63.3785 139.006 65.0134L137.364 69.2086C135.478 67.996 133.149 67.1506 130.932 67.1506C129.426 67.1506 128.422 67.8628 128.422 68.7856C128.464 71.7616 139.593 70.1267 139.718 77.3788C139.718 81.3191 136.371 84.0856 131.601 84.0856C128.088 84.0856 124.866 83.2475 122.397 81.4864H122.398ZM192.375 75.8914C191.931 76.6797 191.286 77.3356 190.505 77.7922C189.724 78.2487 188.836 78.4893 187.932 78.4895C185.113 78.4895 182.828 76.1999 182.828 73.3756C182.828 70.5515 185.113 68.2619 187.932 68.2619C188.836 68.2619 189.724 68.5026 190.505 68.9591C191.286 69.4156 191.931 70.0716 192.375 70.8599L197.26 68.1478C195.43 64.8772 191.94 62.6657 187.932 62.6657C182.028 62.6657 177.243 67.4602 177.243 73.3756C177.243 79.2904 182.028 84.0856 187.932 84.0856C191.94 84.0856 195.43 81.874 197.26 78.6035L192.375 75.8914ZM142.888 83.6663H148.996V53.7502H142.889L142.888 83.6663ZM200.345 53.7502V83.6663H206.453V74.7034L213.691 83.6663H221.498L212.294 73.0186L220.828 63.0833H213.356L206.453 71.3435V53.7502H200.345ZM167.814 63.0844V65.5162C166.81 63.8392 164.342 62.6657 161.748 62.6657C156.393 62.6657 152.168 67.4026 152.168 73.3547C152.168 79.3067 156.393 84.0856 161.748 84.0856C164.342 84.0856 166.81 82.912 167.814 81.2351V83.6663H173.922V63.0844H167.814ZM167.814 75.9329C166.936 77.3998 165.095 78.4889 163.045 78.4889C160.226 78.4889 157.941 76.1999 157.941 73.3756C157.941 70.5515 160.226 68.2619 163.045 68.2619C165.095 68.2619 166.936 69.3934 167.814 70.9018V75.9329Z" fill="#9E9E9E"/>
<path d="M90.1412 53.0891C88.1618 53.0891 86.5574 54.6971 86.5574 56.6801C86.5569 57.1512 86.6493 57.6178 86.8291 58.0532C87.009 58.4887 87.2728 58.8844 87.6056 59.2178C87.9384 59.5513 88.3336 59.8159 88.7686 59.9967C89.2037 60.1774 89.6701 60.2706 90.1412 60.2711H93.7256V56.6801C93.7265 55.7286 93.3492 54.8158 92.677 54.1423C92.0048 53.4689 91.0927 53.0901 90.1412 53.0891ZM90.1412 62.6651H80.5838C78.6044 62.6651 77 64.2731 77 66.2567C77 68.2397 78.6044 69.8477 80.5838 69.8477H90.1418C92.1206 69.8477 93.7256 68.2397 93.7256 66.2567C93.7256 64.2731 92.1206 62.6651 90.1412 62.6651Z" fill="#9E9E9E"/>
<path d="M112.84 66.2567C112.84 64.2731 111.235 62.6651 109.256 62.6651C107.277 62.6651 105.672 64.2731 105.672 66.2567V69.8477H109.256C110.208 69.8467 111.12 69.4679 111.792 68.7945C112.464 68.121 112.841 67.2082 112.84 66.2567ZM103.283 66.2567V56.6801C103.284 55.7286 102.907 54.8158 102.234 54.1423C101.562 53.4689 100.65 53.0901 99.6986 53.0891C97.7192 53.0891 96.1149 54.6971 96.1149 56.6801V66.2561C96.1149 68.2403 97.7192 69.8483 99.6986 69.8483C100.65 69.8473 101.562 69.4684 102.234 68.7951C102.907 68.1216 103.284 67.2088 103.283 66.2573" fill="#9E9E9E"/>
<path d="M99.6986 89.0003C100.65 88.9994 101.562 88.6205 102.234 87.9471C102.907 87.2737 103.284 86.3608 103.283 85.4093C103.284 84.4578 102.907 83.545 102.234 82.8715C101.562 82.1981 100.65 81.8193 99.6986 81.8183H96.1149V85.4093C96.1149 87.3924 97.7192 89.0003 99.6986 89.0003ZM99.6986 79.4243H109.257C111.235 79.4243 112.84 77.8164 112.84 75.8328C112.841 74.8812 112.464 73.9684 111.792 73.2949C111.12 72.6216 110.208 72.2427 109.256 72.2417H99.6986C97.7192 72.2417 96.1149 73.8497 96.1149 75.8328C96.1143 76.3038 96.2067 76.7704 96.3866 77.2058C96.5663 77.6413 96.8303 78.037 97.163 78.3705C97.4958 78.7038 97.891 78.9685 98.3261 79.1492C98.7612 79.33 99.2276 79.4233 99.6986 79.4237" fill="#9E9E9E"/>
<path d="M77 75.8328C76.9995 76.3038 77.0919 76.7704 77.2717 77.2058C77.4515 77.6413 77.7154 78.037 78.0482 78.3705C78.381 78.7038 78.7762 78.9685 79.2112 79.1492C79.6463 79.33 80.1127 79.4233 80.5838 79.4237C81.5353 79.4227 82.4474 79.0438 83.1196 78.3705C83.7918 77.697 84.169 76.7842 84.1682 75.8328V72.2417H80.5838C78.6044 72.2417 77 73.8497 77 75.8328ZM86.5574 75.8328V85.4088C86.5574 87.3924 88.1618 89.0003 90.1412 89.0003C91.0927 88.9994 92.0048 88.6205 92.677 87.9471C93.3492 87.2737 93.7265 86.3608 93.7256 85.4093V75.8328C93.726 75.3616 93.6337 74.8949 93.4539 74.4594C93.274 74.024 93.0101 73.6283 92.6773 73.2948C92.3444 72.9613 91.9491 72.6967 91.5139 72.516C91.0788 72.3353 90.6124 72.2421 90.1412 72.2417C88.1618 72.2417 86.5574 73.8497 86.5574 75.8328Z" fill="#9E9E9E"/>
</g>
<defs>
<clipPath id="clip0_1_1528">
<rect width="144" height="36" fill="white" transform="translate(77 53)"/>
</clipPath>
</defs>
</svg>
