<svg width="298" height="142" viewBox="0 0 298 142" fill="none" xmlns="http://www.w3.org/2000/svg">
<rect width="298" height="142" rx="24" fill="#F2F4F7"/>
<g clip-path="url(#clip0_1_1530)">
<path d="M111.988 67.044C111.988 66.1111 112.753 65.7521 114.021 65.7521C115.84 65.7521 118.136 66.3025 119.955 67.2834V61.6609C117.969 60.8714 116.007 60.5603 114.021 60.5603C109.164 60.5603 105.935 63.0965 105.935 67.3314C105.935 73.9345 115.026 72.8819 115.026 75.7291C115.026 76.8295 114.069 77.1885 112.729 77.1885C110.744 77.1885 108.207 76.3749 106.198 75.2744V80.9686C108.423 81.9257 110.672 82.3323 112.729 82.3323C117.706 82.3323 121.127 79.8681 121.127 75.5855C121.103 68.4558 111.988 69.7237 111.988 67.044ZM128.161 55.7754L122.323 57.0194L122.299 76.1835C122.299 79.7246 124.955 82.3323 128.496 82.3323C130.458 82.3323 131.893 81.9734 132.683 81.5428V76.686C131.917 76.997 128.137 78.0976 128.137 74.5566V66.0631H132.683V60.9671H128.137L128.161 55.7754ZM140.124 62.7375L139.741 60.9671H134.573V81.9016H140.554V67.7141C141.966 65.8719 144.359 66.2068 145.1 66.4699V60.9671C144.335 60.6799 141.535 60.1536 140.124 62.7375ZM146.56 60.9671H152.565V81.9016H146.56V60.9671ZM146.56 59.1488L152.565 57.8568V53L146.56 54.2681V59.1488ZM165.054 60.5603C162.709 60.5603 161.202 61.6609 160.365 62.4266L160.053 60.9432H154.79V88.8399L160.771 87.5719L160.795 80.8011C161.657 81.4232 162.924 82.3084 165.03 82.3084C169.313 82.3084 173.212 78.8631 173.212 71.2789C173.188 64.3405 169.241 60.5603 165.054 60.5603ZM163.618 77.0448C162.207 77.0448 161.369 76.5425 160.795 75.9204L160.771 67.044C161.393 66.3503 162.255 65.8719 163.618 65.8719C165.796 65.8719 167.303 68.3121 167.303 71.4463C167.303 74.6523 165.819 77.0448 163.618 77.0448ZM192.065 71.5181C192.065 65.3933 189.099 60.5603 183.428 60.5603C177.734 60.5603 174.289 65.3934 174.289 71.4704C174.289 78.6717 178.356 82.3084 184.194 82.3084C187.041 82.3084 189.194 81.6624 190.821 80.7533V75.9682C189.194 76.7817 187.328 77.2842 184.96 77.2842C182.639 77.2842 180.581 76.4707 180.318 73.6475H192.018C192.018 73.3363 192.065 72.0923 192.065 71.5181ZM180.246 69.2453C180.246 66.5417 181.897 65.4171 183.405 65.4171C184.864 65.4171 186.419 66.5417 186.419 69.2453H180.246Z" fill="#9E9E9E"/>
</g>
<defs>
<clipPath id="clip0_1_1530">
<rect width="86.1308" height="36" fill="white" transform="translate(105.935 53)"/>
</clipPath>
</defs>
</svg>
