<svg width="298" height="142" viewBox="0 0 298 142" fill="none" xmlns="http://www.w3.org/2000/svg">
<rect width="298" height="142" rx="24" fill="#F2F4F7"/>
<g clip-path="url(#clip0_1_1520)">
<path fill-rule="evenodd" clip-rule="evenodd" d="M199.332 63.7955C199.944 64.852 200.144 66.054 200.21 67.4053L200.297 69.2064V81.8011L200.386 83.6042C200.564 86.5487 202.735 88.726 205.703 88.9112L207.496 89V69.2064L207.585 67.4053C207.659 66.0691 207.857 64.8444 208.479 63.7803C209.113 62.689 210.022 61.7835 211.116 61.1548C212.211 60.5261 213.451 60.1964 214.713 60.1987C215.975 60.2009 217.214 60.5352 218.306 61.1679C219.398 61.8005 220.304 62.7093 220.934 63.803C221.546 64.8595 221.737 66.0842 221.811 67.4053L221.9 69.2008V81.8011L221.988 83.6042C222.174 86.5638 224.328 88.7411 227.305 88.9112L229.098 89V67.4053C229.098 63.5868 227.582 59.9245 224.882 57.2239C222.183 54.5232 218.521 53.0053 214.703 53.0038C212.659 53.0016 210.638 53.4357 208.776 54.2769C206.913 55.1181 205.251 56.3471 203.902 57.8818C202.551 56.3477 200.889 55.119 199.027 54.2775C197.165 53.4361 195.144 53.0012 193.1 53.0019C190.11 53.0019 187.336 53.9091 185.038 55.4759C183.635 53.911 180.498 53.0019 178.697 53.0019V89L180.498 88.9112C183.511 88.7127 185.688 86.5941 185.805 83.6042L185.902 81.8011V69.2064L185.99 67.4053C186.066 66.0464 186.255 64.852 186.869 63.7879C187.503 62.6972 188.412 61.7919 189.506 61.1625C190.599 60.533 191.839 60.2014 193.1 60.2008C194.363 60.201 195.603 60.5333 196.697 61.1642C197.791 61.7952 198.699 62.7026 199.332 63.7955ZM76.1004 88.9131L77.9015 89H104.9L104.811 87.2045C104.567 84.2449 102.471 82.0827 99.5019 81.89L97.7008 81.8011H81.5038L103.099 60.1989L103.01 58.4053C102.87 55.4154 100.685 53.2552 97.7008 53.0907L95.8997 53.0095L68.9016 53.0019L68.9904 54.803C69.2266 57.7344 71.3528 59.9418 74.2974 60.1119L76.1004 60.2008H92.2974L70.7027 81.803L70.7915 83.6042C70.9692 86.5714 73.1105 88.7203 76.1004 88.9112V88.9131ZM171.63 58.2711C173.302 59.9424 174.628 61.9267 175.533 64.1106C176.438 66.2945 176.903 68.6352 176.903 70.9991C176.903 73.3629 176.438 75.7036 175.533 77.8875C174.628 80.0714 173.302 82.0557 171.63 83.727C168.253 87.1016 163.674 88.9972 158.9 88.9972C154.125 88.9972 149.546 87.1016 146.169 83.727C139.14 76.6982 139.14 65.2999 146.169 58.2711C147.839 56.6003 149.822 55.2749 152.004 54.3705C154.187 53.4661 156.526 53.0004 158.888 53C161.255 52.9984 163.598 53.4632 165.784 54.368C167.971 55.2728 169.957 56.5998 171.63 58.273V58.2711ZM166.537 63.3683C168.562 65.3944 169.699 68.1414 169.699 71.0057C169.699 73.8699 168.562 76.6169 166.537 78.643C164.511 80.6676 161.764 81.8048 158.9 81.8048C156.035 81.8048 153.288 80.6676 151.262 78.643C149.238 76.6169 148.101 73.8699 148.101 71.0057C148.101 68.1414 149.238 65.3944 151.262 63.3683C153.288 61.3438 156.035 60.2065 158.9 60.2065C161.764 60.2065 164.511 61.3438 166.537 63.3683ZM121.112 53C123.474 53.0006 125.814 53.4666 127.996 54.3714C130.178 55.2761 132.161 56.6019 133.831 58.273C140.862 65.2999 140.862 76.7001 133.831 83.727C130.454 87.1016 125.875 88.9972 121.1 88.9972C116.326 88.9972 111.747 87.1016 108.37 83.727C101.341 76.6982 101.341 65.2999 108.37 58.2711C110.04 56.6003 112.023 55.2749 114.205 54.3705C116.387 53.4661 118.727 53.0004 121.089 53H121.112ZM128.738 63.3646C130.763 65.3907 131.9 68.1382 131.9 71.0028C131.9 73.8675 130.763 76.615 128.738 78.6411C126.712 80.6657 123.965 81.8029 121.1 81.8029C118.236 81.8029 115.489 80.6657 113.463 78.6411C111.439 76.615 110.301 73.868 110.301 71.0038C110.301 68.1396 111.439 65.3925 113.463 63.3664C115.489 61.3419 118.236 60.2046 121.1 60.2046C123.965 60.2046 126.712 61.3419 128.738 63.3664V63.3646Z" fill="#9E9E9E"/>
</g>
<defs>
<clipPath id="clip0_1_1520">
<rect width="160.197" height="36" fill="white" transform="translate(68.9016 53)"/>
</clipPath>
</defs>
</svg>
