<svg width="191" height="60" viewBox="0 0 191 60" fill="none" xmlns="http://www.w3.org/2000/svg">
<rect x="1.2874" y="1.25029" width="187.986" height="56.7759" rx="28.388" fill="white"/>
<rect x="1.2874" y="1.25029" width="187.986" height="56.7759" rx="28.388" stroke="#EFEFEF" stroke-width="2.43417"/>
<path fill-rule="evenodd" clip-rule="evenodd" d="M43.5121 36.7982C44.1021 35.8982 44.3221 35.4382 44.7721 34.4282C41.4521 33.1682 40.9221 28.4382 44.2021 26.6282C43.2021 25.3682 41.7921 24.6382 40.4621 24.6382C39.5021 24.6382 38.8421 24.8882 38.2521 25.1182C37.7521 25.3082 37.3021 25.4782 36.7421 25.4782C36.1421 25.4782 35.6121 25.2882 35.0521 25.0882C34.4421 24.8682 33.8021 24.6382 33.002 24.6382C31.512 24.6382 29.9221 25.5482 28.9121 27.1082C27.4921 29.3082 27.7421 33.4282 30.0321 36.9482C30.8521 38.2082 31.9521 39.6182 33.3821 39.6382C33.9821 39.6482 34.3721 39.4682 34.8021 39.2782C35.2921 39.0582 35.8221 38.8182 36.7521 38.8182C37.6821 38.8082 38.2021 39.0582 38.6921 39.2782C39.1121 39.4682 39.4921 39.6482 40.0821 39.6382C41.5321 39.6182 42.6921 38.0582 43.5121 36.7982Z" fill="black"/>
<path fill-rule="evenodd" clip-rule="evenodd" d="M40.2521 19.6382C40.4121 20.7382 39.9621 21.8282 39.3721 22.5882C38.7421 23.4082 37.6421 24.0482 36.5821 24.0082C36.3921 22.9482 36.8821 21.8582 37.4821 21.1282C38.1521 20.3282 39.2821 19.7082 40.2521 19.6382Z" fill="black"/>
<path d="M59.0664 24.3728H63.37C65.1738 24.3728 66.5661 24.8739 67.5471 25.8759C68.5281 26.8885 69.0185 28.2651 69.0185 30.0055C69.0185 31.7459 68.5281 33.1172 67.5471 34.1193C66.5661 35.1319 65.1738 35.6382 63.37 35.6382H59.0664V24.3728ZM61.2024 33.8028H63.3384C64.446 33.8028 65.3003 33.4811 65.9016 32.8377C66.5028 32.1837 66.8034 31.2396 66.8034 30.0055C66.8034 28.7714 66.5028 27.8326 65.9016 27.1892C65.3003 26.5352 64.446 26.2082 63.3384 26.2082H61.2024V33.8028ZM78.1432 31.5561C78.1432 32.8429 77.7635 33.8767 77.004 34.6572C76.2446 35.4378 75.2425 35.828 73.9978 35.828C72.7531 35.828 71.7511 35.4378 70.9916 34.6572C70.2216 33.8872 69.8366 32.8535 69.8366 31.5561C69.8366 30.2587 70.2216 29.2249 70.9916 28.4549C71.7511 27.6744 72.7531 27.2841 73.9978 27.2841C75.2425 27.2841 76.2446 27.6691 77.004 28.4391C77.7635 29.2091 78.1432 30.2481 78.1432 31.5561ZM72.4314 33.5022C72.8112 33.9558 73.3333 34.1825 73.9978 34.1825C74.6623 34.1825 75.1792 33.9558 75.5484 33.5022C75.9281 33.0381 76.118 32.3894 76.118 31.5561C76.118 30.7228 75.9281 30.0793 75.5484 29.6258C75.1792 29.1617 74.6623 28.9296 73.9978 28.9296C73.3333 28.9296 72.8112 29.1564 72.4314 29.61C72.0622 30.0635 71.8777 30.7122 71.8777 31.5561C71.8777 32.3999 72.0622 33.0486 72.4314 33.5022ZM87.9796 30.5276L88.8973 27.474H91.0333L88.3435 35.6382H86.255L85.2266 32.2839C84.8363 30.9126 84.6042 30.1004 84.5304 29.8473C84.4988 29.9633 84.272 30.7755 83.8501 32.2839L82.8374 35.6382H80.7489L78.0592 27.474H80.1951L81.1128 30.5276C81.3449 31.2555 81.6139 32.1995 81.9198 33.3598C82.2151 32.189 82.4735 31.2396 82.695 30.5118L83.5969 27.474H85.4956L86.3974 30.5118C86.6189 31.2396 86.8774 32.189 87.1727 33.3598C87.447 32.3155 87.7159 31.3715 87.9796 30.5276ZM96.1326 27.2841C97.0186 27.2841 97.7148 27.5425 98.2211 28.0594C98.738 28.5657 98.9964 29.2882 98.9964 30.227V35.6382H97.0028V30.5593C97.0028 29.5256 96.4912 29.0087 95.4681 29.0087C94.9618 29.0087 94.5293 29.1933 94.1707 29.5625C93.8226 29.9211 93.6485 30.4222 93.6485 31.0656V35.6382H91.6549V27.474H93.5852V28.6448C94.2076 27.7377 95.0567 27.2841 96.1326 27.2841ZM102.452 35.6382H100.458V24.3728H102.452V35.6382ZM111.843 31.5561C111.843 32.8429 111.463 33.8767 110.704 34.6572C109.944 35.4378 108.942 35.828 107.698 35.828C106.453 35.828 105.451 35.4378 104.692 34.6572C103.922 33.8872 103.536 32.8535 103.536 31.5561C103.536 30.2587 103.922 29.2249 104.692 28.4549C105.451 27.6744 106.453 27.2841 107.698 27.2841C108.942 27.2841 109.944 27.6691 110.704 28.4391C111.463 29.2091 111.843 30.2481 111.843 31.5561ZM106.131 33.5022C106.511 33.9558 107.033 34.1825 107.698 34.1825C108.362 34.1825 108.879 33.9558 109.248 33.5022C109.628 33.0381 109.818 32.3894 109.818 31.5561C109.818 30.7228 109.628 30.0793 109.248 29.6258C108.879 29.1617 108.362 28.9296 107.698 28.9296C107.033 28.9296 106.511 29.1564 106.131 29.61C105.762 30.0635 105.578 30.7122 105.578 31.5561C105.578 32.3999 105.762 33.0486 106.131 33.5022ZM120.184 35.6382H118.191C118.096 35.4694 118.022 35.1371 117.969 34.6414C117.421 35.4325 116.545 35.828 115.343 35.828C114.446 35.828 113.729 35.6118 113.191 35.1793C112.664 34.7469 112.4 34.1456 112.4 33.3756C112.4 31.8883 113.444 31.0392 115.533 30.8283L116.767 30.7175C117.178 30.6648 117.474 30.5698 117.653 30.4327C117.832 30.285 117.922 30.0688 117.922 29.784C117.922 29.4359 117.806 29.1828 117.574 29.0245C117.352 28.8558 116.973 28.7714 116.435 28.7714C115.854 28.7714 115.438 28.8716 115.185 29.072C114.932 29.2619 114.784 29.5941 114.742 30.0688H112.78C112.896 28.2123 114.119 27.2841 116.45 27.2841C118.718 27.2841 119.852 28.1016 119.852 29.7365V34.0876C119.852 34.8049 119.963 35.3217 120.184 35.6382ZM115.818 34.4041C116.44 34.4041 116.946 34.2353 117.336 33.8977C117.727 33.5497 117.922 33.0539 117.922 32.4105V31.6668C117.732 31.8356 117.421 31.9464 116.988 31.9991L115.912 32.1257C115.385 32.189 115.005 32.3155 114.773 32.5054C114.552 32.6847 114.441 32.9484 114.441 33.2965C114.441 33.6446 114.557 33.9188 114.789 34.1193C115.032 34.3091 115.375 34.4041 115.818 34.4041ZM126.959 28.534V24.3728H128.953V35.6382H127.022V34.499C126.421 35.385 125.562 35.828 124.443 35.828C123.315 35.828 122.423 35.4378 121.77 34.6572C121.105 33.8767 120.773 32.8429 120.773 31.5561C120.773 30.2481 121.105 29.2091 121.77 28.4391C122.413 27.6691 123.304 27.2841 124.443 27.2841C125.54 27.2841 126.379 27.7007 126.959 28.534ZM122.814 31.6194C122.814 32.4632 122.998 33.1014 123.368 33.5338C123.737 33.9663 124.248 34.1825 124.902 34.1825C125.556 34.1825 126.073 33.9558 126.453 33.5022C126.822 33.0486 127.007 32.3999 127.007 31.5561C127.007 30.7122 126.822 30.0635 126.453 29.61C126.084 29.1564 125.567 28.9296 124.902 28.9296C124.259 28.9296 123.747 29.1669 123.368 29.6416C122.998 30.1163 122.814 30.7755 122.814 31.6194ZM141.223 27.3157V24.3728H143.28V35.6382H140.907L137.774 30.6226C136.92 29.283 136.25 28.1543 135.765 27.2366C135.807 28.418 135.828 30.2376 135.828 32.6953V35.6382H133.771V24.3728H136.144L139.293 29.3884C140.232 30.9074 140.896 32.036 141.286 32.7744C141.244 31.2027 141.223 29.3832 141.223 27.3157ZM152.771 31.5561C152.771 32.8429 152.391 33.8767 151.631 34.6572C150.872 35.4378 149.87 35.828 148.625 35.828C147.38 35.828 146.378 35.4378 145.619 34.6572C144.849 33.8872 144.464 32.8535 144.464 31.5561C144.464 30.2587 144.849 29.2249 145.619 28.4549C146.378 27.6744 147.38 27.2841 148.625 27.2841C149.87 27.2841 150.872 27.6691 151.631 28.4391C152.391 29.2091 152.771 30.2481 152.771 31.5561ZM147.059 33.5022C147.438 33.9558 147.961 34.1825 148.625 34.1825C149.29 34.1825 149.806 33.9558 150.176 33.5022C150.555 33.0381 150.745 32.3894 150.745 31.5561C150.745 30.7228 150.555 30.0793 150.176 29.6258C149.806 29.1617 149.29 28.9296 148.625 28.9296C147.961 28.9296 147.438 29.1564 147.059 29.61C146.69 30.0635 146.505 30.7122 146.505 31.5561C146.505 32.3999 146.69 33.0486 147.059 33.5022ZM162.607 30.5276L163.525 27.474H165.661L162.971 35.6382H160.882L159.854 32.2839C159.464 30.9126 159.232 30.1004 159.158 29.8473C159.126 29.9633 158.899 30.7755 158.477 32.2839L157.465 35.6382H155.376L152.686 27.474H154.822L155.74 30.5276C155.972 31.2555 156.241 32.1995 156.547 33.3598C156.842 32.189 157.101 31.2396 157.322 30.5118L158.224 27.474H160.123L161.025 30.5118C161.246 31.2396 161.505 32.189 161.8 33.3598C162.074 32.3155 162.343 31.3715 162.607 30.5276Z" fill="#1A1D1F"/>
</svg>
