<svg width="191" height="60" viewBox="0 0 191 60" fill="none" xmlns="http://www.w3.org/2000/svg">
<rect x="1.30559" y="1.25029" width="187.986" height="56.7759" rx="28.388" fill="white"/>
<rect x="1.30559" y="1.25029" width="187.986" height="56.7759" rx="28.388" stroke="#EFEFEF" stroke-width="2.43417"/>
<path d="M27.7845 20.0203C27.5547 20.2564 27.4207 20.6266 27.4207 21.1053V38.1653C27.4207 38.644 27.5547 39.0142 27.7845 39.2503L27.842 39.3014L37.5112 29.747V29.5236L27.842 19.9692L27.7845 20.0203Z" fill="url(#paint0_linear_85_101)"/>
<path d="M40.7279 32.9323L37.5112 29.7475V29.5242L40.7343 26.3394L40.8045 26.384L44.6212 28.5285C45.7126 29.1412 45.7126 30.1432 44.6212 30.7559L40.8045 32.9004L40.7279 32.9323Z" fill="url(#paint1_linear_85_101)"/>
<path d="M40.8045 32.8937L37.5112 29.6387L27.7845 39.2505C28.1483 39.6271 28.7355 39.6717 29.4056 39.2952L40.8045 32.8937Z" fill="url(#paint2_linear_85_101)"/>
<path d="M40.8045 26.3774L29.4056 19.9759C28.7355 19.6057 28.1419 19.6504 27.7845 20.0269L37.5112 29.6388L40.8045 26.3774Z" fill="url(#paint3_linear_85_101)"/>
<path d="M59.0846 24.3728H63.3882C65.192 24.3728 66.5843 24.8739 67.5653 25.8759C68.5462 26.8885 69.0367 28.2651 69.0367 30.0055C69.0367 31.7459 68.5462 33.1172 67.5653 34.1193C66.5843 35.1319 65.192 35.6382 63.3882 35.6382H59.0846V24.3728ZM61.2206 33.8028H63.3566C64.4641 33.8028 65.3185 33.4811 65.9198 32.8377C66.521 32.1837 66.8216 31.2396 66.8216 30.0055C66.8216 28.7714 66.521 27.8326 65.9198 27.1892C65.3185 26.5352 64.4641 26.2082 63.3566 26.2082H61.2206V33.8028ZM78.1614 31.5561C78.1614 32.8429 77.7817 33.8767 77.0222 34.6572C76.2627 35.4378 75.2607 35.828 74.016 35.828C72.7713 35.828 71.7693 35.4378 71.0098 34.6572C70.2398 33.8872 69.8548 32.8535 69.8548 31.5561C69.8548 30.2587 70.2398 29.2249 71.0098 28.4549C71.7693 27.6744 72.7713 27.2841 74.016 27.2841C75.2607 27.2841 76.2627 27.6691 77.0222 28.4391C77.7817 29.2091 78.1614 30.2481 78.1614 31.5561ZM72.4496 33.5022C72.8293 33.9558 73.3515 34.1825 74.016 34.1825C74.6805 34.1825 75.1974 33.9558 75.5666 33.5022C75.9463 33.0381 76.1362 32.3894 76.1362 31.5561C76.1362 30.7228 75.9463 30.0793 75.5666 29.6258C75.1974 29.1617 74.6805 28.9296 74.016 28.9296C73.3515 28.9296 72.8293 29.1564 72.4496 29.61C72.0804 30.0635 71.8958 30.7122 71.8958 31.5561C71.8958 32.3999 72.0804 33.0486 72.4496 33.5022ZM87.9978 30.5276L88.9155 27.474H91.0515L88.3617 35.6382H86.2732L85.2448 32.2839C84.8545 30.9126 84.6224 30.1004 84.5486 29.8473C84.517 29.9633 84.2902 30.7755 83.8682 32.2839L82.8556 35.6382H80.7671L78.0773 27.474H80.2133L81.131 30.5276C81.3631 31.2555 81.6321 32.1995 81.9379 33.3598C82.2333 32.189 82.4917 31.2396 82.7132 30.5118L83.6151 27.474H85.5137L86.4156 30.5118C86.6371 31.2396 86.8955 32.189 87.1909 33.3598C87.4651 32.3155 87.7341 31.3715 87.9978 30.5276ZM96.1508 27.2841C97.0368 27.2841 97.733 27.5425 98.2393 28.0594C98.7562 28.5657 99.0146 29.2882 99.0146 30.227V35.6382H97.021V30.5593C97.021 29.5256 96.5094 29.0087 95.4863 29.0087C94.98 29.0087 94.5475 29.1933 94.1889 29.5625C93.8408 29.9211 93.6667 30.4222 93.6667 31.0656V35.6382H91.6731V27.474H93.6034V28.6448C94.2258 27.7377 95.0749 27.2841 96.1508 27.2841ZM102.47 35.6382H100.477V24.3728H102.47V35.6382ZM111.861 31.5561C111.861 32.8429 111.482 33.8767 110.722 34.6572C109.963 35.4378 108.961 35.828 107.716 35.828C106.471 35.828 105.469 35.4378 104.71 34.6572C103.94 33.8872 103.555 32.8535 103.555 31.5561C103.555 30.2587 103.94 29.2249 104.71 28.4549C105.469 27.6744 106.471 27.2841 107.716 27.2841C108.961 27.2841 109.963 27.6691 110.722 28.4391C111.482 29.2091 111.861 30.2481 111.861 31.5561ZM106.15 33.5022C106.529 33.9558 107.051 34.1825 107.716 34.1825C108.38 34.1825 108.897 33.9558 109.266 33.5022C109.646 33.0381 109.836 32.3894 109.836 31.5561C109.836 30.7228 109.646 30.0793 109.266 29.6258C108.897 29.1617 108.38 28.9296 107.716 28.9296C107.051 28.9296 106.529 29.1564 106.15 29.61C105.78 30.0635 105.596 30.7122 105.596 31.5561C105.596 32.3999 105.78 33.0486 106.15 33.5022ZM120.203 35.6382H118.209C118.114 35.4694 118.04 35.1371 117.988 34.6414C117.439 35.4325 116.564 35.828 115.361 35.828C114.464 35.828 113.747 35.6118 113.209 35.1793C112.682 34.7469 112.418 34.1456 112.418 33.3756C112.418 31.8883 113.462 31.0392 115.551 30.8283L116.785 30.7175C117.196 30.6648 117.492 30.5698 117.671 30.4327C117.85 30.285 117.94 30.0688 117.94 29.784C117.94 29.4359 117.824 29.1828 117.592 29.0245C117.37 28.8558 116.991 28.7714 116.453 28.7714C115.873 28.7714 115.456 28.8716 115.203 29.072C114.95 29.2619 114.802 29.5941 114.76 30.0688H112.798C112.914 28.2123 114.138 27.2841 116.469 27.2841C118.736 27.2841 119.87 28.1016 119.87 29.7365V34.0876C119.87 34.8049 119.981 35.3217 120.203 35.6382ZM115.836 34.4041C116.458 34.4041 116.964 34.2353 117.355 33.8977C117.745 33.5497 117.94 33.0539 117.94 32.4105V31.6668C117.75 31.8356 117.439 31.9464 117.007 31.9991L115.931 32.1257C115.403 32.189 115.024 32.3155 114.791 32.5054C114.57 32.6847 114.459 32.9484 114.459 33.2965C114.459 33.6446 114.575 33.9188 114.807 34.1193C115.05 34.3091 115.393 34.4041 115.836 34.4041ZM126.977 28.534V24.3728H128.971V35.6382H127.041V34.499C126.439 35.385 125.58 35.828 124.462 35.828C123.333 35.828 122.442 35.4378 121.788 34.6572C121.123 33.8767 120.791 32.8429 120.791 31.5561C120.791 30.2481 121.123 29.2091 121.788 28.4391C122.431 27.6691 123.322 27.2841 124.462 27.2841C125.559 27.2841 126.397 27.7007 126.977 28.534ZM122.832 31.6194C122.832 32.4632 123.017 33.1014 123.386 33.5338C123.755 33.9663 124.267 34.1825 124.92 34.1825C125.574 34.1825 126.091 33.9558 126.471 33.5022C126.84 33.0486 127.025 32.3999 127.025 31.5561C127.025 30.7122 126.84 30.0635 126.471 29.61C126.102 29.1564 125.585 28.9296 124.92 28.9296C124.277 28.9296 123.765 29.1669 123.386 29.6416C123.017 30.1163 122.832 30.7755 122.832 31.6194ZM141.241 27.3157V24.3728H143.298V35.6382H140.925L137.792 30.6226C136.938 29.283 136.268 28.1543 135.783 27.2366C135.825 28.418 135.846 30.2376 135.846 32.6953V35.6382H133.789V24.3728H136.162L139.311 29.3884C140.25 30.9074 140.914 32.036 141.305 32.7744C141.262 31.2027 141.241 29.3832 141.241 27.3157ZM152.789 31.5561C152.789 32.8429 152.409 33.8767 151.65 34.6572C150.89 35.4378 149.888 35.828 148.643 35.828C147.399 35.828 146.397 35.4378 145.637 34.6572C144.867 33.8872 144.482 32.8535 144.482 31.5561C144.482 30.2587 144.867 29.2249 145.637 28.4549C146.397 27.6744 147.399 27.2841 148.643 27.2841C149.888 27.2841 150.89 27.6691 151.65 28.4391C152.409 29.2091 152.789 30.2481 152.789 31.5561ZM147.077 33.5022C147.457 33.9558 147.979 34.1825 148.643 34.1825C149.308 34.1825 149.825 33.9558 150.194 33.5022C150.574 33.0381 150.763 32.3894 150.763 31.5561C150.763 30.7228 150.574 30.0793 150.194 29.6258C149.825 29.1617 149.308 28.9296 148.643 28.9296C147.979 28.9296 147.457 29.1564 147.077 29.61C146.708 30.0635 146.523 30.7122 146.523 31.5561C146.523 32.3999 146.708 33.0486 147.077 33.5022ZM162.625 30.5276L163.543 27.474H165.679L162.989 35.6382H160.901L159.872 32.2839C159.482 30.9126 159.25 30.1004 159.176 29.8473C159.144 29.9633 158.917 30.7755 158.496 32.2839L157.483 35.6382H155.394L152.705 27.474H154.841L155.758 30.5276C155.99 31.2555 156.259 32.1995 156.565 33.3598C156.861 32.189 157.119 31.2396 157.341 30.5118L158.242 27.474H160.141L161.043 30.5118C161.264 31.2396 161.523 32.189 161.818 33.3598C162.092 32.3155 162.361 31.3715 162.625 30.5276Z" fill="#1A1D1F"/>
<defs>
<linearGradient id="paint0_linear_85_101" x1="36.6513" y1="38.3435" x2="21.1908" y2="34.1824" gradientUnits="userSpaceOnUse">
<stop stop-color="#4596D2"/>
<stop offset="0.0066" stop-color="#4597D3"/>
<stop offset="0.2601" stop-color="#3EB9EB"/>
<stop offset="0.5122" stop-color="#49C1ED"/>
<stop offset="0.7604" stop-color="#5AC3E6"/>
<stop offset="1" stop-color="#5EC4E4"/>
</linearGradient>
<linearGradient id="paint1_linear_85_101" x1="46.0427" y1="29.6349" x2="27.16" y2="29.6349" gradientUnits="userSpaceOnUse">
<stop stop-color="#FFE006"/>
<stop offset="0.4087" stop-color="#FBBC0D"/>
<stop offset="0.7754" stop-color="#F6A316"/>
<stop offset="1" stop-color="#F59A1A"/>
</linearGradient>
<linearGradient id="paint2_linear_85_101" x1="30.8437" y1="32.659" x2="18.626" y2="11.8506" gradientUnits="userSpaceOnUse">
<stop stop-color="#E84049"/>
<stop offset="1" stop-color="#C40F62"/>
</linearGradient>
<linearGradient id="paint3_linear_85_101" x1="17.1634" y1="40.1307" x2="22.6152" y2="30.8384" gradientUnits="userSpaceOnUse">
<stop stop-color="#30A071"/>
<stop offset="0.0685" stop-color="#2CA771"/>
<stop offset="0.4762" stop-color="#4DB26F"/>
<stop offset="0.8009" stop-color="#5FB568"/>
<stop offset="1" stop-color="#63B664"/>
</linearGradient>
</defs>
</svg>
